<?xml version="1.0" encoding="UTF-8"?>
<svg xmlns="http://www.w3.org/2000/svg" xmlns:xlink="http://www.w3.org/1999/xlink" width="3873" height="3873" viewBox="0 0 3873 3873">
<defs>
<clipPath id="clip-0">
<path clip-rule="nonzero" d="M 45 45 L 3828 45 L 3828 3828 L 45 3828 Z M 45 45 "/>
</clipPath>
<clipPath id="clip-1">
<path clip-rule="evenodd" d="M 1936.5 45.398438 C 2980.929688 45.398438 3827.601562 892.070312 3827.601562 1936.5 C 3827.601562 2980.929688 2980.929688 3827.601562 1936.5 3827.601562 C 892.074219 3827.601562 45.398438 2980.929688 45.398438 1936.5 C 45.398438 892.070312 892.074219 45.398438 1936.5 45.398438 "/>
</clipPath>
<linearGradient id="linear-pattern-0" gradientUnits="userSpaceOnUse" x1="0.00000813014" y1="0" x2="1.000002" y2="0" gradientTransform="matrix(3782.23, 3782.22, 3782.22, -3782.23, 45.3685, 45.37)">
<stop offset="0" stop-color="rgb(93.72406%, 15.852356%, 60.992432%)" stop-opacity="1"/>
<stop offset="0.015625" stop-color="rgb(93.710327%, 15.661621%, 60.908508%)" stop-opacity="1"/>
<stop offset="0.03125" stop-color="rgb(93.681335%, 15.292358%, 60.644531%)" stop-opacity="1"/>
<stop offset="0.046875" stop-color="rgb(93.65387%, 14.93988%, 60.28595%)" stop-opacity="1"/>
<stop offset="0.0546875" stop-color="rgb(93.634033%, 14.685059%, 59.973145%)" stop-opacity="1"/>
<stop offset="0.0625" stop-color="rgb(93.621826%, 14.524841%, 59.703064%)" stop-opacity="1"/>
<stop offset="0.0703125" stop-color="rgb(93.60199%, 14.276123%, 59.436035%)" stop-opacity="1"/>
<stop offset="0.078125" stop-color="rgb(93.574524%, 13.922119%, 59.176636%)" stop-opacity="1"/>
<stop offset="0.0859375" stop-color="rgb(93.553162%, 13.63678%, 58.950806%)" stop-opacity="1"/>
<stop offset="0.09375" stop-color="rgb(93.537903%, 13.446045%, 58.7677%)" stop-opacity="1"/>
<stop offset="0.109375" stop-color="rgb(93.530273%, 13.357544%, 58.578491%)" stop-opacity="1"/>
<stop offset="0.125" stop-color="rgb(93.383789%, 13.224792%, 58.314514%)" stop-opacity="1"/>
<stop offset="0.132812" stop-color="rgb(93.103027%, 13.034058%, 58.033752%)" stop-opacity="1"/>
<stop offset="0.140625" stop-color="rgb(92.810059%, 12.919617%, 57.785034%)" stop-opacity="1"/>
<stop offset="0.148437" stop-color="rgb(92.552185%, 12.797546%, 57.559204%)" stop-opacity="1"/>
<stop offset="0.15625" stop-color="rgb(92.367554%, 12.654114%, 57.377625%)" stop-opacity="1"/>
<stop offset="0.164062" stop-color="rgb(92.155457%, 12.521362%, 57.17926%)" stop-opacity="1"/>
<stop offset="0.171875" stop-color="rgb(91.868591%, 12.408447%, 56.939697%)" stop-opacity="1"/>
<stop offset="0.179688" stop-color="rgb(91.557312%, 12.30011%, 56.715393%)" stop-opacity="1"/>
<stop offset="0.1875" stop-color="rgb(91.247559%, 12.181091%, 56.536865%)" stop-opacity="1"/>
<stop offset="0.195312" stop-color="rgb(90.983582%, 12.059021%, 56.347656%)" stop-opacity="1"/>
<stop offset="0.203125" stop-color="rgb(90.795898%, 11.930847%, 56.109619%)" stop-opacity="1"/>
<stop offset="0.210938" stop-color="rgb(90.592957%, 11.811829%, 55.857849%)" stop-opacity="1"/>
<stop offset="0.21875" stop-color="rgb(90.315247%, 11.705017%, 55.607605%)" stop-opacity="1"/>
<stop offset="0.226562" stop-color="rgb(90.048218%, 11.593628%, 55.384827%)" stop-opacity="1"/>
<stop offset="0.234375" stop-color="rgb(89.855957%, 11.459351%, 55.204773%)" stop-opacity="1"/>
<stop offset="0.242187" stop-color="rgb(89.659119%, 11.329651%, 55.021667%)" stop-opacity="1"/>
<stop offset="0.25" stop-color="rgb(89.387512%, 11.219788%, 54.797363%)" stop-opacity="1"/>
<stop offset="0.257812" stop-color="rgb(89.080811%, 11.11908%, 54.576111%)" stop-opacity="1"/>
<stop offset="0.265625" stop-color="rgb(88.775635%, 11.00769%, 54.400635%)" stop-opacity="1"/>
<stop offset="0.273438" stop-color="rgb(88.504028%, 10.89325%, 54.226685%)" stop-opacity="1"/>
<stop offset="0.28125" stop-color="rgb(88.305664%, 10.772705%, 54.005432%)" stop-opacity="1"/>
<stop offset="0.289062" stop-color="rgb(88.117981%, 10.658264%, 53.762817%)" stop-opacity="1"/>
<stop offset="0.296875" stop-color="rgb(87.857056%, 10.55603%, 53.523254%)" stop-opacity="1"/>
<stop offset="0.304688" stop-color="rgb(87.582397%, 10.456848%, 53.286743%)" stop-opacity="1"/>
<stop offset="0.3125" stop-color="rgb(87.382507%, 10.345459%, 53.04718%)" stop-opacity="1"/>
<stop offset="0.320312" stop-color="rgb(87.200928%, 10.231018%, 52.809143%)" stop-opacity="1"/>
<stop offset="0.328125" stop-color="rgb(86.94458%, 10.13031%, 52.572632%)" stop-opacity="1"/>
<stop offset="0.335938" stop-color="rgb(86.642456%, 10.040283%, 52.340698%)" stop-opacity="1"/>
<stop offset="0.34375" stop-color="rgb(86.341858%, 9.94873%, 52.110291%)" stop-opacity="1"/>
<stop offset="0.351563" stop-color="rgb(86.04126%, 9.860229%, 51.879883%)" stop-opacity="1"/>
<stop offset="0.359375" stop-color="rgb(85.740662%, 9.771729%, 51.651001%)" stop-opacity="1"/>
<stop offset="0.367188" stop-color="rgb(85.441589%, 9.683228%, 51.423645%)" stop-opacity="1"/>
<stop offset="0.375" stop-color="rgb(85.142517%, 9.596252%, 51.197815%)" stop-opacity="1"/>
<stop offset="0.382812" stop-color="rgb(84.843445%, 9.510803%, 50.971985%)" stop-opacity="1"/>
<stop offset="0.390625" stop-color="rgb(84.544373%, 9.423828%, 50.747681%)" stop-opacity="1"/>
<stop offset="0.394531" stop-color="rgb(84.248352%, 9.359741%, 50.523376%)" stop-opacity="1"/>
<stop offset="0.398437" stop-color="rgb(84.098816%, 9.336853%, 50.410461%)" stop-opacity="1"/>
<stop offset="0.402344" stop-color="rgb(83.955383%, 9.391785%, 50.289917%)" stop-opacity="1"/>
<stop offset="0.40625" stop-color="rgb(83.811951%, 9.446716%, 50.170898%)" stop-opacity="1"/>
<stop offset="0.410156" stop-color="rgb(83.666992%, 9.484863%, 50.053406%)" stop-opacity="1"/>
<stop offset="0.414062" stop-color="rgb(83.522034%, 9.521484%, 49.935913%)" stop-opacity="1"/>
<stop offset="0.421875" stop-color="rgb(83.374023%, 9.47876%, 49.82605%)" stop-opacity="1"/>
<stop offset="0.429687" stop-color="rgb(83.078003%, 9.396362%, 49.607849%)" stop-opacity="1"/>
<stop offset="0.4375" stop-color="rgb(82.781982%, 9.313965%, 49.389648%)" stop-opacity="1"/>
<stop offset="0.441406" stop-color="rgb(82.487488%, 9.233093%, 49.168396%)" stop-opacity="1"/>
<stop offset="0.445312" stop-color="rgb(82.339478%, 9.191895%, 49.055481%)" stop-opacity="1"/>
<stop offset="0.449219" stop-color="rgb(82.192993%, 9.161377%, 48.905945%)" stop-opacity="1"/>
<stop offset="0.453125" stop-color="rgb(82.046509%, 9.129333%, 48.757935%)" stop-opacity="1"/>
<stop offset="0.457031" stop-color="rgb(81.893921%, 9.098816%, 48.612976%)" stop-opacity="1"/>
<stop offset="0.460938" stop-color="rgb(81.741333%, 9.066772%, 48.468018%)" stop-opacity="1"/>
<stop offset="0.464844" stop-color="rgb(81.523132%, 9.042358%, 48.365784%)" stop-opacity="1"/>
<stop offset="0.46875" stop-color="rgb(81.303406%, 9.017944%, 48.26355%)" stop-opacity="1"/>
<stop offset="0.472656" stop-color="rgb(81.091309%, 8.992004%, 48.15979%)" stop-opacity="1"/>
<stop offset="0.476562" stop-color="rgb(80.879211%, 8.964539%, 48.057556%)" stop-opacity="1"/>
<stop offset="0.484375" stop-color="rgb(80.804443%, 8.911133%, 47.949219%)" stop-opacity="1"/>
<stop offset="0.492188" stop-color="rgb(80.656433%, 8.805847%, 47.731018%)" stop-opacity="1"/>
<stop offset="0.496094" stop-color="rgb(80.436707%, 8.721924%, 47.477722%)" stop-opacity="1"/>
<stop offset="0.5" stop-color="rgb(80.290222%, 8.692932%, 47.33429%)" stop-opacity="1"/>
<stop offset="0.503906" stop-color="rgb(80.14679%, 8.66394%, 47.189331%)" stop-opacity="1"/>
<stop offset="0.507812" stop-color="rgb(80.001831%, 8.633423%, 47.045898%)" stop-opacity="1"/>
<stop offset="0.515625" stop-color="rgb(79.858398%, 8.67157%, 47.012329%)" stop-opacity="1"/>
<stop offset="0.523438" stop-color="rgb(79.571533%, 8.747864%, 46.943665%)" stop-opacity="1"/>
<stop offset="0.527344" stop-color="rgb(79.283142%, 8.760071%, 46.774292%)" stop-opacity="1"/>
<stop offset="0.53125" stop-color="rgb(79.138184%, 8.734131%, 46.635437%)" stop-opacity="1"/>
<stop offset="0.535156" stop-color="rgb(78.994751%, 8.705139%, 46.49353%)" stop-opacity="1"/>
<stop offset="0.539062" stop-color="rgb(78.851318%, 8.676147%, 46.351624%)" stop-opacity="1"/>
<stop offset="0.542969" stop-color="rgb(78.645325%, 8.555603%, 46.180725%)" stop-opacity="1"/>
<stop offset="0.546875" stop-color="rgb(78.437805%, 8.435059%, 46.008301%)" stop-opacity="1"/>
<stop offset="0.554687" stop-color="rgb(78.227234%, 8.308411%, 45.835876%)" stop-opacity="1"/>
<stop offset="0.5625" stop-color="rgb(77.928162%, 8.122253%, 45.552063%)" stop-opacity="1"/>
<stop offset="0.570312" stop-color="rgb(77.770996%, 8.01239%, 45.33844%)" stop-opacity="1"/>
<stop offset="0.578125" stop-color="rgb(77.565002%, 7.925415%, 45.137024%)" stop-opacity="1"/>
<stop offset="0.585937" stop-color="rgb(77.288818%, 7.853699%, 44.93866%)" stop-opacity="1"/>
<stop offset="0.59375" stop-color="rgb(76.950073%, 7.771301%, 44.740295%)" stop-opacity="1"/>
<stop offset="0.601563" stop-color="rgb(76.548767%, 7.673645%, 44.537354%)" stop-opacity="1"/>
<stop offset="0.609375" stop-color="rgb(76.243591%, 7.575989%, 44.335938%)" stop-opacity="1"/>
<stop offset="0.617188" stop-color="rgb(76.072693%, 7.476807%, 44.134521%)" stop-opacity="1"/>
<stop offset="0.625" stop-color="rgb(75.883484%, 7.374573%, 43.902588%)" stop-opacity="1"/>
<stop offset="0.632813" stop-color="rgb(75.63324%, 7.264709%, 43.629456%)" stop-opacity="1"/>
<stop offset="0.636719" stop-color="rgb(75.361633%, 7.177734%, 43.354797%)" stop-opacity="1"/>
<stop offset="0.640625" stop-color="rgb(75.221252%, 7.144165%, 43.218994%)" stop-opacity="1"/>
<stop offset="0.644531" stop-color="rgb(75.082397%, 7.121277%, 43.086243%)" stop-opacity="1"/>
<stop offset="0.648438" stop-color="rgb(74.943542%, 7.098389%, 42.955017%)" stop-opacity="1"/>
<stop offset="0.65625" stop-color="rgb(74.809265%, 7.102966%, 42.863464%)" stop-opacity="1"/>
<stop offset="0.664063" stop-color="rgb(74.543762%, 7.124329%, 42.697144%)" stop-opacity="1"/>
<stop offset="0.671875" stop-color="rgb(74.32251%, 7.168579%, 42.549133%)" stop-opacity="1"/>
<stop offset="0.679688" stop-color="rgb(74.165344%, 7.228088%, 42.405701%)" stop-opacity="1"/>
<stop offset="0.6875" stop-color="rgb(73.944092%, 7.298279%, 42.240906%)" stop-opacity="1"/>
<stop offset="0.695313" stop-color="rgb(73.59314%, 7.376099%, 42.037964%)" stop-opacity="1"/>
<stop offset="0.703125" stop-color="rgb(73.236084%, 7.446289%, 41.821289%)" stop-opacity="1"/>
<stop offset="0.710938" stop-color="rgb(72.949219%, 7.502747%, 41.600037%)" stop-opacity="1"/>
<stop offset="0.71875" stop-color="rgb(72.689819%, 7.551575%, 41.378784%)" stop-opacity="1"/>
<stop offset="0.726563" stop-color="rgb(72.431946%, 7.598877%, 41.157532%)" stop-opacity="1"/>
<stop offset="0.734375" stop-color="rgb(72.172546%, 7.643127%, 40.957642%)" stop-opacity="1"/>
<stop offset="0.742188" stop-color="rgb(71.914673%, 7.678223%, 40.792847%)" stop-opacity="1"/>
<stop offset="0.75" stop-color="rgb(71.620178%, 7.720947%, 40.631104%)" stop-opacity="1"/>
<stop offset="0.757813" stop-color="rgb(71.260071%, 7.785034%, 40.435791%)" stop-opacity="1"/>
<stop offset="0.765625" stop-color="rgb(70.899963%, 7.855225%, 40.223694%)" stop-opacity="1"/>
<stop offset="0.773438" stop-color="rgb(70.608521%, 7.90863%, 40.008545%)" stop-opacity="1"/>
<stop offset="0.78125" stop-color="rgb(70.326233%, 7.946777%, 39.790344%)" stop-opacity="1"/>
<stop offset="0.789063" stop-color="rgb(69.98291%, 7.969666%, 39.567566%)" stop-opacity="1"/>
<stop offset="0.796875" stop-color="rgb(69.631958%, 7.98645%, 39.361572%)" stop-opacity="1"/>
<stop offset="0.804688" stop-color="rgb(69.342041%, 8.009338%, 39.195251%)" stop-opacity="1"/>
<stop offset="0.8125" stop-color="rgb(69.087219%, 8.041382%, 39.039612%)" stop-opacity="1"/>
<stop offset="0.820313" stop-color="rgb(68.835449%, 8.079529%, 38.847351%)" stop-opacity="1"/>
<stop offset="0.828125" stop-color="rgb(68.562317%, 8.120728%, 38.619995%)" stop-opacity="1"/>
<stop offset="0.835938" stop-color="rgb(68.231201%, 8.151245%, 38.354492%)" stop-opacity="1"/>
<stop offset="0.84375" stop-color="rgb(67.881775%, 8.177185%, 38.088989%)" stop-opacity="1"/>
<stop offset="0.859375" stop-color="rgb(67.481995%, 8.21228%, 37.826538%)" stop-opacity="1"/>
<stop offset="0.867188" stop-color="rgb(67.190552%, 8.235168%, 37.611389%)" stop-opacity="1"/>
<stop offset="0.875" stop-color="rgb(67.042542%, 8.235168%, 37.445068%)" stop-opacity="1"/>
<stop offset="0.882812" stop-color="rgb(66.769409%, 8.250427%, 37.211609%)" stop-opacity="1"/>
<stop offset="0.890625" stop-color="rgb(66.416931%, 8.273315%, 36.941528%)" stop-opacity="1"/>
<stop offset="0.898438" stop-color="rgb(66.122437%, 8.297729%, 36.747742%)" stop-opacity="1"/>
<stop offset="0.90625" stop-color="rgb(65.863037%, 8.322144%, 36.595154%)" stop-opacity="1"/>
<stop offset="0.914062" stop-color="rgb(65.545654%, 8.345032%, 36.372375%)" stop-opacity="1"/>
<stop offset="0.921875" stop-color="rgb(65.193176%, 8.363342%, 36.094666%)" stop-opacity="1"/>
<stop offset="0.929687" stop-color="rgb(64.904785%, 8.360291%, 35.848999%)" stop-opacity="1"/>
<stop offset="0.9375" stop-color="rgb(64.671326%, 8.34198%, 35.629272%)" stop-opacity="1"/>
<stop offset="0.945312" stop-color="rgb(64.431763%, 8.354187%, 35.420227%)" stop-opacity="1"/>
<stop offset="0.953125" stop-color="rgb(64.18457%, 8.389282%, 35.217285%)" stop-opacity="1"/>
<stop offset="0.960937" stop-color="rgb(63.874817%, 8.409119%, 35.011292%)" stop-opacity="1"/>
<stop offset="0.96875" stop-color="rgb(63.514709%, 8.413696%, 34.799194%)" stop-opacity="1"/>
<stop offset="0.976562" stop-color="rgb(63.154602%, 8.425903%, 34.55658%)" stop-opacity="1"/>
<stop offset="0.984375" stop-color="rgb(62.799072%, 8.442688%, 34.281921%)" stop-opacity="1"/>
<stop offset="0.992187" stop-color="rgb(62.507629%, 8.43811%, 34.039307%)" stop-opacity="1"/>
<stop offset="1" stop-color="rgb(62.275696%, 8.415222%, 33.824158%)" stop-opacity="1"/>
</linearGradient>
</defs>
<g clip-path="url(#clip-0)">
<g clip-path="url(#clip-1)">
<path fill-rule="nonzero" fill="url(#linear-pattern-0)" d="M -1845.699219 1936.503906 L 1936.496094 -1845.699219 L 5718.699219 1936.496094 L 1936.503906 5718.699219 Z M -1845.699219 1936.503906 "/>
</g>
</g>
<path fill-rule="evenodd" fill="rgb(100%, 100%, 100%)" fill-opacity="1" d="M 3194.5 3123.898438 L 678.5 3123.898438 C 662.199219 3123.898438 649 3110.699219 649 3094.398438 L 649 1728.601562 C 649 1664.101562 701.398438 1611.699219 765.898438 1611.699219 L 1603.699219 1611.699219 C 1613.800781 1611.699219 1623.199219 1616.800781 1628.601562 1625.398438 C 1634 1633.898438 1634.699219 1644.601562 1630.398438 1653.800781 L 1413.800781 2115.5 C 1452.699219 2114.5 1491.300781 2106.5 1527.300781 2091.898438 C 1527.699219 2091.699219 1528 2091.601562 1528.398438 2091.5 C 1574 2073.101562 1622 2063.699219 1671.101562 2063.699219 C 1720.601562 2063.699219 1769 2073.199219 1814.898438 2091.898438 C 1853.800781 2107.699219 1894.699219 2115.800781 1936.5 2115.800781 C 1978.300781 2115.800781 2019.199219 2107.800781 2058.101562 2091.898438 C 2150.5 2054.199219 2252.300781 2054.101562 2344.800781 2091.5 C 2345.101562 2091.699219 2345.398438 2091.699219 2345.800781 2091.898438 C 2384.699219 2107.699219 2425.601562 2115.800781 2467.398438 2115.800781 C 2509.199219 2115.800781 2550.101562 2107.800781 2588.898438 2091.898438 C 2633.300781 2073.898438 2680 2064.398438 2727.800781 2063.800781 C 2731.101562 2063.601562 2734.300781 2063.699219 2737.601562 2063.800781 C 2785.601562 2064.398438 2832.300781 2073.898438 2876.398438 2091.898438 C 2954.800781 2123.800781 3041.199219 2123.800781 3119.601562 2091.898438 L 3183.300781 2066 C 3192.398438 2062.300781 3202.699219 2063.398438 3210.898438 2068.800781 C 3219 2074.199219 3223.898438 2083.5 3223.898438 2093.199219 L 3223.898438 3094.5 C 3224 3110.699219 3210.800781 3123.898438 3194.5 3123.898438 Z M 708 3064.898438 L 3165 3064.898438 L 3165 2137 L 3142 2146.398438 C 3049.300781 2184.101562 2947.101562 2184.101562 2854.398438 2146.398438 C 2816.898438 2131.101562 2777.300781 2123.199219 2736.699219 2122.699219 C 2736.398438 2122.699219 2736.101562 2122.699219 2735.800781 2122.699219 C 2734.800781 2122.601562 2733.800781 2122.699219 2732.800781 2122.699219 C 2731.898438 2122.699219 2730.800781 2122.699219 2729.800781 2122.699219 C 2729.601562 2122.699219 2729.199219 2122.699219 2728.898438 2122.699219 C 2688.398438 2123.199219 2648.800781 2131.101562 2611.300781 2146.398438 C 2565.398438 2165.199219 2517 2174.601562 2467.5 2174.601562 C 2418.398438 2174.601562 2370.300781 2165.199219 2324.699219 2146.800781 C 2324.300781 2146.601562 2323.898438 2146.601562 2323.601562 2146.398438 C 2245.300781 2114.398438 2158.898438 2114.398438 2080.5 2146.398438 C 2034.5 2165.199219 1986.101562 2174.601562 1936.699219 2174.601562 C 1887.199219 2174.601562 1838.800781 2165.101562 1792.898438 2146.398438 C 1754 2130.601562 1713.101562 2122.5 1671.300781 2122.5 C 1629.5 2122.5 1588.601562 2130.5 1549.800781 2146.398438 C 1549.398438 2146.601562 1549 2146.699219 1548.699219 2146.898438 C 1490.898438 2170.199219 1427.5 2179 1365.398438 2172.5 C 1365.300781 2172.5 1365.300781 2172.5 1365.199219 2172.5 C 1329.601562 2168.601562 1294.800781 2159.898438 1262.101562 2146.5 C 1224.800781 2131.300781 1185.398438 2123.300781 1144.898438 2122.800781 L 1144.699219 2122.800781 C 1144.300781 2122.800781 1143.898438 2122.800781 1143.5 2122.800781 C 1142.5 2122.699219 1141.5 2122.800781 1140.5 2122.800781 C 1139.601562 2122.800781 1138.5 2122.800781 1137.5 2122.800781 C 1137.300781 2122.800781 1136.898438 2122.800781 1136.699219 2122.800781 C 1096 2123.300781 1056.398438 2131.300781 1019 2146.5 C 973.101562 2165.300781 924.699219 2174.699219 875.199219 2174.699219 C 825.699219 2174.699219 777.300781 2165.199219 731.398438 2146.5 L 708.199219 2137.101562 Z M 708 2073.398438 L 753.398438 2091.800781 C 792.300781 2107.601562 833.199219 2115.699219 875 2115.699219 C 916.800781 2115.699219 957.699219 2107.699219 996.5 2091.800781 C 1040.699219 2073.800781 1087.398438 2064.300781 1135.300781 2063.699219 C 1138.5 2063.5 1141.800781 2063.601562 1145 2063.699219 L 1145.101562 2063.699219 C 1193.300781 2064.300781 1240 2073.800781 1284.101562 2091.800781 C 1305.5 2100.5 1327.800781 2106.898438 1350.699219 2110.898438 L 1557.199219 1670.699219 L 765.898438 1670.699219 C 734 1670.699219 708 1696.699219 708 1728.601562 L 708 2073.398438 "/>
<path fill-rule="evenodd" fill="rgb(100%, 100%, 100%)" fill-opacity="1" d="M 1374 2766.398438 C 1368.898438 2766.398438 1363.800781 2766.300781 1358.601562 2766.101562 C 1251.601562 2762.199219 1151 2718.398438 1075.199219 2642.699219 L 1047.101562 2614.601562 C 1035.601562 2603.101562 1035.601562 2584.398438 1047.101562 2572.898438 L 1075.199219 2544.800781 C 1150.898438 2469.101562 1251.5 2425.300781 1358.601562 2421.398438 C 1465.101562 2417.5 1568 2453.5 1648.601562 2522.699219 C 1669.300781 2540.398438 1681.101562 2566.398438 1681.101562 2593.800781 C 1681.101562 2621.199219 1669.300781 2647.101562 1648.601562 2664.898438 C 1571.898438 2730.601562 1474.898438 2766.398438 1374 2766.398438 Z M 1109.800781 2593.800781 L 1117 2601 C 1250.601562 2734.5 1467.199219 2742.800781 1610.300781 2620.101562 C 1617.898438 2613.601562 1622.199219 2603.898438 1622.199219 2593.800781 C 1622.199219 2583.699219 1617.898438 2574 1610.199219 2567.5 C 1467.101562 2444.699219 1250.5 2453.199219 1117 2586.601562 L 1109.800781 2593.800781 "/>
<path fill-rule="evenodd" fill="rgb(100%, 100%, 100%)" fill-opacity="1" d="M 1068.101562 2623.398438 C 1061.199219 2623.398438 1054.199219 2621 1048.601562 2616 L 943.199219 2522.5 C 931 2511.699219 930 2493 940.800781 2480.898438 C 951.601562 2468.699219 970.300781 2467.601562 982.398438 2478.5 L 1087.800781 2572 C 1100 2582.800781 1101 2601.5 1090.199219 2613.601562 C 1084.300781 2620 1076.199219 2623.398438 1068.101562 2623.398438 "/>
<path fill-rule="evenodd" fill="rgb(100%, 100%, 100%)" fill-opacity="1" d="M 962.800781 2717 C 954.699219 2717 946.601562 2713.699219 940.699219 2707.199219 C 929.898438 2695 931 2676.398438 943.101562 2665.601562 L 1048.5 2572 C 1060.601562 2561.199219 1079.199219 2562.300781 1090.101562 2574.398438 C 1100.898438 2586.5 1099.800781 2605.199219 1087.699219 2616 L 982.300781 2709.601562 C 976.699219 2714.5 969.699219 2717 962.800781 2717 "/>
<path fill-rule="evenodd" fill="rgb(100%, 100%, 100%)" fill-opacity="1" d="M 1367.898438 2480.199219 C 1360.300781 2480.199219 1352.800781 2477.398438 1347.101562 2471.601562 L 1272.398438 2396.898438 C 1260.898438 2385.398438 1260.898438 2366.699219 1272.398438 2355.199219 C 1283.898438 2343.699219 1302.601562 2343.699219 1314.101562 2355.199219 L 1388.800781 2429.898438 C 1400.300781 2441.398438 1400.300781 2460.101562 1388.898438 2471.601562 C 1383 2477.300781 1375.5 2480.199219 1367.898438 2480.199219 "/>
<path fill-rule="evenodd" fill="rgb(100%, 100%, 100%)" fill-opacity="1" d="M 1293.199219 2841 C 1285.699219 2841 1278.101562 2838.101562 1272.398438 2832.300781 C 1260.898438 2820.800781 1260.898438 2802.101562 1272.398438 2790.601562 L 1347.101562 2716 C 1358.601562 2704.5 1377.300781 2704.5 1388.800781 2716 C 1400.300781 2727.398438 1400.300781 2746.199219 1388.800781 2757.699219 L 1314.101562 2832.398438 C 1308.300781 2838.101562 1300.800781 2841 1293.199219 2841 "/>
<path fill-rule="evenodd" fill="rgb(100%, 100%, 100%)" fill-opacity="1" d="M 1458.898438 2757.199219 C 1448.699219 2757.199219 1438.898438 2752 1433.398438 2742.5 C 1406.101562 2695.699219 1392.300781 2645.699219 1392.300781 2593.800781 C 1392.300781 2541.898438 1406.101562 2491.800781 1433.398438 2445 C 1441.601562 2430.898438 1459.601562 2426.199219 1473.699219 2434.398438 C 1487.800781 2442.601562 1492.5 2460.601562 1484.300781 2474.699219 C 1462.300781 2512.398438 1451.199219 2552.398438 1451.199219 2593.800781 C 1451.199219 2635.101562 1462.300781 2675.199219 1484.300781 2712.898438 C 1492.5 2727 1487.800781 2745 1473.699219 2753.199219 C 1469 2755.800781 1464 2757.199219 1458.898438 2757.199219 "/>
<path fill-rule="evenodd" fill="rgb(100%, 100%, 100%)" fill-opacity="1" d="M 2605 2789.5 C 2529.5 2789.5 2456.898438 2763 2399.199219 2714.199219 C 2381.199219 2699 2370.800781 2676.601562 2370.800781 2652.898438 C 2370.800781 2629.101562 2381.199219 2606.699219 2399.398438 2591.5 C 2460.199219 2540.101562 2537.800781 2513.398438 2617.800781 2516.601562 C 2698.300781 2519.800781 2774 2552.800781 2830.898438 2609.800781 L 2853.199219 2632 C 2858.699219 2637.5 2861.898438 2645 2861.898438 2652.898438 C 2861.898438 2660.699219 2858.699219 2668.199219 2853.199219 2673.800781 L 2830.898438 2696 C 2773.898438 2753 2698.199219 2786.101562 2617.800781 2789.300781 C 2613.398438 2789.300781 2609.199219 2789.5 2605 2789.5 Z M 2604.800781 2575.699219 C 2545.199219 2575.699219 2485.5 2595.800781 2437.300781 2636.5 C 2432.398438 2640.601562 2429.699219 2646.398438 2429.699219 2652.800781 C 2429.699219 2659.101562 2432.5 2665 2437.199219 2669 C 2539.601562 2755.699219 2694.199219 2749.101562 2789.199219 2654.101562 L 2790.601562 2652.699219 L 2789.199219 2651.300781 C 2738.898438 2601.199219 2671.898438 2575.699219 2604.800781 2575.699219 "/>
<path fill-rule="evenodd" fill="rgb(100%, 100%, 100%)" fill-opacity="1" d="M 2832.199219 2682.398438 C 2824.101562 2682.398438 2816 2679.101562 2810.101562 2672.5 C 2799.300781 2660.300781 2800.398438 2641.699219 2812.5 2630.898438 L 2890.699219 2561.5 C 2902.898438 2550.699219 2921.398438 2551.800781 2932.300781 2563.898438 C 2943.101562 2576.101562 2942 2594.699219 2929.800781 2605.5 L 2851.601562 2674.898438 C 2846.101562 2679.898438 2839.199219 2682.398438 2832.199219 2682.398438 "/>
<path fill-rule="evenodd" fill="rgb(100%, 100%, 100%)" fill-opacity="1" d="M 2910.398438 2752 C 2903.5 2752 2896.5 2749.601562 2890.800781 2744.5 L 2812.601562 2674.898438 C 2800.398438 2664.101562 2799.398438 2645.398438 2810.199219 2633.300781 C 2821.101562 2621.199219 2839.699219 2620.101562 2851.800781 2630.898438 L 2930 2700.5 C 2942.101562 2711.398438 2943.199219 2730 2932.398438 2742.101562 C 2926.601562 2748.601562 2918.5 2752 2910.398438 2752 "/>
<path fill-rule="evenodd" fill="rgb(100%, 100%, 100%)" fill-opacity="1" d="M 2610.398438 2575.199219 C 2602.800781 2575.199219 2595.300781 2572.398438 2589.601562 2566.601562 C 2578.101562 2555.101562 2578 2536.398438 2589.5 2524.898438 L 2644.101562 2470.199219 C 2655.601562 2458.699219 2674.300781 2458.699219 2685.800781 2470.199219 C 2697.300781 2481.699219 2697.398438 2500.398438 2685.898438 2511.898438 L 2631.300781 2566.601562 C 2625.5 2572.300781 2617.898438 2575.199219 2610.398438 2575.199219 "/>
<path fill-rule="evenodd" fill="rgb(100%, 100%, 100%)" fill-opacity="1" d="M 2665 2844 C 2657.5 2844 2649.898438 2841.199219 2644.199219 2835.300781 L 2589.5 2780.601562 C 2578 2769.101562 2578 2750.398438 2589.5 2738.898438 C 2601 2727.398438 2619.699219 2727.398438 2631.199219 2738.898438 L 2685.898438 2793.601562 C 2697.398438 2805.101562 2697.398438 2823.800781 2685.898438 2835.300781 C 2680.101562 2841.101562 2672.5 2844 2665 2844 "/>
<path fill-rule="evenodd" fill="rgb(100%, 100%, 100%)" fill-opacity="1" d="M 2545.699219 2783.199219 C 2540.699219 2783.199219 2535.699219 2781.898438 2531 2779.300781 C 2516.898438 2771.199219 2511.898438 2753.199219 2520 2739 C 2535.800781 2711.300781 2543.898438 2682.300781 2543.898438 2652.699219 C 2543.898438 2623 2535.898438 2594 2520.101562 2566.300781 C 2512 2552.199219 2516.898438 2534.199219 2531 2526 C 2545.101562 2517.800781 2563.101562 2522.800781 2571.300781 2537 C 2592.300781 2573.601562 2602.898438 2612.601562 2602.898438 2652.699219 C 2602.898438 2692.699219 2592.300781 2731.601562 2571.300781 2768.300781 C 2565.800781 2777.898438 2555.898438 2783.199219 2545.699219 2783.199219 "/>
<path fill-rule="evenodd" fill="rgb(100%, 100%, 100%)" fill-opacity="1" d="M 887.101562 1670.699219 C 879.601562 1670.699219 872.101562 1667.898438 866.300781 1662.101562 C 854.800781 1650.601562 854.699219 1631.898438 866.199219 1620.398438 L 1674.601562 807.101562 C 1712.699219 769 1763 748.300781 1816.898438 749 C 1870.601562 749.699219 1920.601562 771.5 1957.601562 810.5 C 1968.601562 822.101562 1968.300781 840.398438 1957 851.601562 L 1146.601562 1662 C 1135.101562 1673.5 1116.398438 1673.5 1104.898438 1662 C 1093.398438 1650.5 1093.398438 1631.800781 1104.898438 1620.300781 L 1892.898438 832.300781 C 1870.5 816.800781 1844 808.300781 1816.101562 807.898438 C 1778.398438 807.5 1743 821.898438 1716.398438 848.601562 L 908.101562 1662 C 902.199219 1667.800781 894.699219 1670.699219 887.101562 1670.699219 "/>
<path fill-rule="evenodd" fill="rgb(100%, 100%, 100%)" fill-opacity="1" d="M 1936.601562 2914.398438 C 1920.300781 2914.398438 1907.101562 2901.199219 1907.101562 2884.898438 L 1907.101562 2534.101562 C 1907.101562 2517.800781 1920.300781 2504.601562 1936.601562 2504.601562 C 1952.898438 2504.601562 1966.101562 2517.800781 1966.101562 2534.101562 L 1966.101562 2884.898438 C 1966 2901.101562 1952.898438 2914.398438 1936.601562 2914.398438 "/>
<path fill-rule="evenodd" fill="rgb(100%, 100%, 100%)" fill-opacity="1" d="M 1936.601562 2397.5 C 1920.300781 2397.5 1907.101562 2384.300781 1907.101562 2368 L 1906.699219 831 C 1906.699219 814.699219 1919.898438 801.5 1936.199219 801.5 C 1952.5 801.5 1965.699219 814.699219 1965.699219 831 L 1966.101562 2368.101562 C 1966 2384.300781 1952.898438 2397.5 1936.601562 2397.5 "/>
<path fill-rule="evenodd" fill="rgb(100%, 100%, 100%)" fill-opacity="1" d="M 1936.601562 2563.601562 C 1874.601562 2563.601562 1824.199219 2513.199219 1824.199219 2451.199219 C 1824.199219 2389.199219 1874.601562 2338.800781 1936.601562 2338.800781 C 1998.601562 2338.800781 2049 2389.199219 2049 2451.199219 C 2049 2513 1998.601562 2563.601562 1936.601562 2563.601562 Z M 1936.601562 2397.5 C 1907.101562 2397.5 1883.101562 2421.5 1883.101562 2451 C 1883.101562 2480.5 1907.101562 2504.5 1936.601562 2504.5 C 1966.101562 2504.5 1990.101562 2480.5 1990.101562 2451 C 1990.101562 2421.601562 1966 2397.5 1936.601562 2397.5 "/>
<path fill-rule="evenodd" fill="rgb(100%, 100%, 100%)" fill-opacity="1" d="M 2008.699219 2986.5 C 1980.5 2986.5 1955 2974.898438 1936.5 2956.300781 C 1918.101562 2974.898438 1892.5 2986.5 1864.199219 2986.5 C 1808.199219 2986.5 1762.5 2940.898438 1762.5 2884.800781 C 1762.5 2868.5 1775.699219 2855.300781 1792 2855.300781 C 1808.300781 2855.300781 1821.5 2868.5 1821.5 2884.800781 C 1821.5 2908.398438 1840.699219 2927.5 1864.199219 2927.5 C 1887.800781 2927.5 1906.898438 2908.300781 1906.898438 2884.800781 C 1906.898438 2868.5 1920.101562 2855.300781 1936.398438 2855.300781 C 1952.699219 2855.300781 1965.898438 2868.5 1965.898438 2884.800781 C 1965.898438 2908.398438 1985 2927.5 2008.601562 2927.5 C 2032.199219 2927.5 2051.300781 2908.300781 2051.300781 2884.800781 C 2051.300781 2868.5 2064.5 2855.300781 2080.800781 2855.300781 C 2097.101562 2855.300781 2110.300781 2868.5 2110.300781 2884.800781 C 2110.5 2940.898438 2064.898438 2986.5 2008.699219 2986.5 "/>
<path fill-rule="evenodd" fill="rgb(100%, 100%, 100%)" fill-opacity="1" d="M 1520 1848.898438 L 678.5 1848.898438 C 662.199219 1848.898438 649 1835.699219 649 1819.398438 C 649 1803.101562 662.199219 1789.898438 678.5 1789.898438 L 1520 1789.898438 C 1536.300781 1789.898438 1549.5 1803.101562 1549.5 1819.398438 C 1549.398438 1835.699219 1536.300781 1848.898438 1520 1848.898438 "/>
</svg>
