<?xml version="1.0" encoding="utf-8"?>
<svg viewBox="53.60002899169922 224.70001220703125 346.7000427246094 218.89996337890625" width="346.7000427246094" height="218.89996337890625" xmlns="http://www.w3.org/2000/svg"><g transform="matrix(1, 0, 0, 1, 0, 0)"><g transform="matrix(1, 0, 0, 1, 0, 0)">
			<path d="M 171.5 253 H 200.1 V 255.3 H 171.5 V 253 Z" class="st1" style="fill: rgb(167, 169, 172);"/>
			<path d="M 171.5 244.300003 H 200.1 V 246.600003 H 171.5 V 244.300003 Z" class="st1" style="fill: rgb(167, 169, 172);"/>
			<g>
				<path class="st2" d="M383.5,441.8H372v-31.4h16.9v26.1C388.8,439.5,386.4,441.8,383.5,441.8z" style="fill: rgb(66, 67, 66);"/>
				<path class="st2" d="M364.1,441.8h-11.5v-31.4h16.9v26.1C369.4,439.5,367.1,441.8,364.1,441.8z" style="fill: rgb(66, 67, 66);"/>
				<path d="M 304.100006 348.600006 H 305.800006 V 361.600006 H 304.100006 V 348.600006 Z" class="st1" style="fill: rgb(167, 169, 172);"/>
				<path class="st3" d="M242.1,330.8l35.1-11.3c1.6-0.5,3.4,0.4,3.9,2l0,0c0.5,1.5-0.2,3.1-1.6,3.8l-33.1,16.5&#10;&#9;&#9;&#9;&#9;&#9;c-1.7,0.8-3.7,0-4.3-1.7l-2-5.2C239.5,333.3,240.4,331.4,242.1,330.8z" style="fill: rgb(240, 141, 33);"/>
				<path class="st4" d="M236.6,360.6v-25.9c0-2,1.6-3.6,3.6-3.6h4.6c1.5,0,2.8,0.9,3.3,2.2l11.4,27.3H236.6z" style="fill: rgb(242, 156, 31);"/>
				<path d="M 194.8000030517578 315.79998779296875 L 181.5 315.79998779296875 L 185.89999389648438 224.6999969482422 L 190.39999389648438 224.6999969482422 Z" class="st1" style="fill: rgb(167, 169, 172);"/>
				<path class="st4" d="M130.6,339.2c-0.5-0.1-6-8.7-8.4-12.4c-0.7-1.1-1-2.3-1-3.5v-7.7c0-3.6,2.9-6.5,6.5-6.5h71.7&#10;&#9;&#9;&#9;&#9;&#9;c4.6,0,8.3,3.7,8.3,8.3v21.9H130.6z" style="fill: rgb(242, 156, 31);"/>
				<path class="st1" d="M108.1,368.8c0-0.9,5.2-22.5,5.2-22.5l13.9-12.6h78.9c2.9,0,5.6,1.8,6.7,4.5l7.1,17.6h40.3&#10;&#9;&#9;&#9;&#9;&#9;c2.1,0,4.2,0.9,5.5,2.6l29.2,35l-123.7,1.8c-1.6,0-3.3-0.3-4.8-1L108.1,368.8z" style="fill: rgb(167, 169, 172);"/>
				<path d="M 129.699997 322.399994 H 140.899997 V 331.899994 H 129.699997 V 322.399994 Z" class="st5" style="fill: rgb(74, 193, 240);"/>
				<path d="M 144.300003 322.399994 H 155.500003 V 331.899994 H 144.300003 V 322.399994 Z" class="st5" style="fill: rgb(74, 193, 240);"/>
				<path d="M 159 322.399994 H 170.2 V 331.899994 H 159 V 322.399994 Z" class="st5" style="fill: rgb(74, 193, 240);"/>
				<path d="M 173.600006 322.399994 H 184.800006 V 331.899994 H 173.600006 V 322.399994 Z" class="st5" style="fill: rgb(74, 193, 240);"/>
				<path class="st3" d="M277.2,319.9l28.9,27.6c0.7,0.7,0.8,1.8,0.2,2.6l0,0c-0.6,0.8-1.8,1.1-2.7,0.5l-34.4-22.2L277.2,319.9z" style="fill: rgb(240, 141, 33);"/>
				<path class="st3" d="M307.2,367.7h-4.4c-0.8,0-1.4-0.6-1.4-1.4v-4.5c0-0.8,0.6-1.4,1.4-1.4h4.4c0.8,0,1.4,0.6,1.4,1.4v4.5&#10;&#9;&#9;&#9;&#9;&#9;C308.6,367.1,307.9,367.7,307.2,367.7z" style="fill: rgb(240, 141, 33);"/>
				<path d="M 140.600003 349.799988 A 5.3 5.3 0 0 1 135.300003 355.099988 A 5.3 5.3 0 0 1 130.000003 349.799988 A 5.3 5.3 0 0 1 135.300003 344.499988 A 5.3 5.3 0 0 1 140.600003 349.799988 Z" class="st5" style="fill: rgb(74, 193, 240);"/>
				<path d="M 155.199994 349.799988 A 5.3 5.3 0 0 1 149.899994 355.099988 A 5.3 5.3 0 0 1 144.599994 349.799988 A 5.3 5.3 0 0 1 149.899994 344.499988 A 5.3 5.3 0 0 1 155.199994 349.799988 Z" class="st5" style="fill: rgb(74, 193, 240);"/>
				<path d="M 169.900006 349.799988 A 5.3 5.3 0 0 1 164.600006 355.099988 A 5.3 5.3 0 0 1 159.300006 349.799988 A 5.3 5.3 0 0 1 164.600006 344.499988 A 5.3 5.3 0 0 1 169.900006 349.799988 Z" class="st5" style="fill: rgb(74, 193, 240);"/>
				<path d="M 184.499997 349.799988 A 5.3 5.3 0 0 1 179.199997 355.099988 A 5.3 5.3 0 0 1 173.899997 349.799988 A 5.3 5.3 0 0 1 179.199997 344.499988 A 5.3 5.3 0 0 1 184.499997 349.799988 Z" class="st5" style="fill: rgb(74, 193, 240);"/>
				<path d="M 201.600003 349.799988 A 5.3 5.3 0 0 1 196.300003 355.099988 A 5.3 5.3 0 0 1 191.000003 349.799988 A 5.3 5.3 0 0 1 196.300003 344.499988 A 5.3 5.3 0 0 1 201.600003 349.799988 Z" class="st5" style="fill: rgb(74, 193, 240);"/>
				<path d="M 171.5 273.700012 H 200.1 V 276.000012 H 171.5 V 273.700012 Z" class="st1" style="fill: rgb(167, 169, 172);"/>
				<path class="st2" d="M181.5,395.2h215.6c-1.3-1.3-3-2.3-4.8-2.9l-26.5-7.4c-4.1-1.1-8.3-1.7-12.5-1.7H197.1l-2.2-4.6&#10;&#9;&#9;&#9;&#9;&#9;c-3.6-7.6-11.1-12.7-19.5-13.2l-112.7-7.2c-5-0.3-9.1,3.8-8.7,8.8l0.2,2.4l105.3,7.7c4.3,0.3,8,3,9.7,6.9l1.8,4.2&#10;&#9;&#9;&#9;&#9;&#9;C172.8,392.5,176.9,395.2,181.5,395.2z" style="fill: rgb(66, 67, 66);"/>
				<path class="st6" d="M171,388.4l-1.8-4.2c-1.7-3.9-5.4-6.5-9.7-6.9l-105.3-7.7l1.2,16.2c0.3,3.8,1.8,7.3,4.4,10l40.7,42.8&#10;&#9;&#9;&#9;&#9;&#9;c3.1,3.2,7.3,5,11.8,5h226.6c6.1,0,11.7-3.4,14.5-8.9l3.5-7c2.3-4.5,6.6-7.7,11.6-8.6l24.1-4.4l7.7-11.7l0,0&#10;&#9;&#9;&#9;&#9;&#9;c0-3-1.2-5.7-3.2-7.7H181.5C176.9,395.2,172.8,392.5,171,388.4z" style="fill: rgb(35, 35, 35);"/>
				<path class="st3" d="M306.2,366.1l-0.1,2.1c0,0,0,0.1,0,0.1c0,0,0,0,0,0c0,0,0,0.1,0,0.1c0,0.1,0,0.2,0.1,0.2&#10;&#9;&#9;&#9;&#9;&#9;c0,0.1,0.1,0.2,0.1,0.2c0,0,0.1,0.1,0.1,0.1l0,0l0.1,0.1l0.8,0.7l0.2,0.2c0.1,0.1,0.1,0.1,0.2,0.2c0.2,0.2,0.3,0.4,0.5,0.6&#10;&#9;&#9;&#9;&#9;&#9;c0.5,0.9,0.5,2,0.1,2.8l-1.6-0.7l1.6,0.7c-0.3,0.8-1,1.4-1.8,1.6c-0.8,0.3-1.6,0.2-2.3-0.2c-0.2-0.1-0.3-0.2-0.4-0.3l-0.4-0.2&#10;&#9;&#9;&#9;&#9;&#9;l-0.2-0.1l-0.1-0.1l-0.1-0.1c-0.2-0.1-0.3-0.3-0.4-0.4c-0.2-0.3-0.4-0.7-0.5-1c0-0.2-0.1-0.4-0.1-0.6c0-0.2,0-0.4,0-0.5h1.1&#10;&#9;&#9;&#9;&#9;&#9;c0,0.2,0,0.3,0,0.4c0,0.1,0,0.2,0.1,0.3c0.1,0.2,0.2,0.4,0.3,0.5c0.1,0.1,0.2,0.1,0.2,0.2l0.1,0l0.1,0.1l0.2,0.1l0.4,0.2&#10;&#9;&#9;&#9;&#9;&#9;c0.1,0.1,0.3,0.2,0.4,0.2c0.4,0.2,0.8,0.2,1.1,0c0.3-0.2,0.6-0.4,0.7-0.8l1.6,0.7l-1.6-0.7c0.1-0.4,0.1-0.8-0.2-1.1&#10;&#9;&#9;&#9;&#9;&#9;c-0.1-0.1-0.1-0.2-0.2-0.2c0,0-0.2-0.1-0.2-0.1l-0.2-0.2l-0.8-0.6l-0.1-0.1l-0.1-0.1c-0.1-0.1-0.2-0.2-0.3-0.3&#10;&#9;&#9;&#9;&#9;&#9;c-0.2-0.2-0.3-0.4-0.5-0.6c-0.1-0.2-0.2-0.5-0.3-0.7c0-0.1-0.1-0.3-0.1-0.4l0-0.2l0-0.2l-0.1-2.1H306.2z" style="fill: rgb(240, 141, 33);"/>
			</g>
		</g></g></svg>