<?xml version="1.0" encoding="UTF-8"?>
<svg xmlns="http://www.w3.org/2000/svg" xmlns:xlink="http://www.w3.org/1999/xlink" width="2478.7" height="2089.35" viewBox="0 0 2478.7 2089.35">
<defs>
<clipPath id="clip-0">
<path clip-rule="nonzero" d="M 0 0 L 2478.699219 0 L 2478.699219 2089.351562 L 0 2089.351562 Z M 0 0 "/>
</clipPath>
<clipPath id="clip-1">
<path clip-rule="evenodd" d="M 1435.730469 652.25 C 1442.511719 661.75 1449.441406 671.140625 1456.46875 680.449219 C 1499.480469 737.28125 1546.808594 790.988281 1596.949219 841.628906 C 1604.949219 849.71875 1613.078125 857.871094 1621.359375 865.980469 C 1667.039062 748.230469 1710.46875 629.601562 1752.289062 510.441406 C 1759.410156 490.179688 1766.5 469.910156 1773.550781 449.621094 C 1753.871094 461.738281 1734.148438 473.839844 1714.429688 485.898438 C 1622.140625 542.339844 1529.28125 597.910156 1435.730469 652.25 Z M 1034.339844 874.511719 C 1043.929688 892.308594 1053.769531 909.96875 1063.679688 927.550781 C 1113.210938 1015.398438 1167.660156 1101.269531 1229.460938 1181.050781 C 1276.898438 1242.28125 1340.429688 1314.609375 1410.359375 1363.089844 C 1441.761719 1296.46875 1471.679688 1229.160156 1500.71875 1161.628906 C 1518.71875 1119.769531 1536.351562 1077.769531 1553.671875 1035.621094 C 1527.628906 1012.800781 1502.710938 988.558594 1478.539062 964.230469 C 1425.449219 910.730469 1375.320312 854.058594 1329.28125 794.371094 C 1314.820312 775.628906 1300.75 756.550781 1287.21875 737.109375 C 1223.851562 772.679688 1160.140625 807.640625 1096.03125 841.859375 C 1075.519531 852.820312 1054.949219 863.699219 1034.339844 874.511719 Z M 525.351562 1110.789062 C 553.394531 1142.859375 581.839844 1174.570312 610.589844 1205.988281 C 720.203125 1325.820312 834.242188 1441.929688 954.789062 1550.800781 C 1026.789062 1615.828125 1110.929688 1688.179688 1199.261719 1750.269531 C 1226.300781 1709.140625 1250.960938 1667.578125 1272.761719 1629.480469 C 1294.269531 1591.839844 1315.019531 1553.738281 1335.070312 1515.289062 C 1255.410156 1462.710938 1184.421875 1389.289062 1126.011719 1318.980469 C 1057.199219 1236.109375 996.355469 1146.320312 941.058594 1053.949219 C 920.949219 1020.351562 901.347656 986.351562 882.761719 951.808594 C 803.273438 991.070312 722.933594 1028.550781 641.429688 1063.371094 C 603.714844 1079.460938 564.878906 1095.578125 525.351562 1110.789062 Z M 2059.898438 1248.210938 C 1998.96875 1238.589844 1937.328125 1221.28125 1880.441406 1202.859375 C 1826.738281 1185.46875 1773.75 1165.46875 1722.308594 1142.210938 C 1714.511719 1138.679688 1706.648438 1135.078125 1698.789062 1131.351562 C 1681.320312 1173.328125 1663.46875 1215.148438 1645.269531 1256.808594 C 1618.761719 1317.550781 1591.46875 1378.078125 1563.03125 1438.070312 C 1586.371094 1447.71875 1609.828125 1457.058594 1633.230469 1466.429688 C 1741.300781 1509.75 1851.03125 1549.398438 1962.78125 1582.21875 C 2031.789062 1602.46875 2110.011719 1623.300781 2187.128906 1635.191406 C 2134.300781 1508.171875 2093.378906 1373.769531 2059.898438 1248.210938 Z M 1920.601562 546.671875 C 1915.519531 561.28125 1910.398438 575.871094 1905.261719 590.460938 C 1860.011719 718.878906 1812.789062 846.660156 1762.828125 973.351562 C 1775.359375 979.429688 1787.929688 985.050781 1799.75 990.261719 C 1846.140625 1010.738281 1893.828125 1028.460938 1942.171875 1043.800781 C 1965.519531 1051.199219 1989.921875 1058.488281 2014.75 1064.851562 C 1977.550781 900.761719 1948.121094 734.800781 1923.78125 568.441406 C 1922.710938 561.191406 1921.671875 553.929688 1920.601562 546.671875 Z M 1302.308594 298.171875 C 1311.078125 359.570312 1325.121094 421.941406 1343.300781 477.109375 C 1346.21875 485.929688 1349.308594 494.761719 1352.578125 503.53125 C 1450.570312 446.519531 1547.800781 388.179688 1644.421875 328.898438 C 1652.339844 324.039062 1660.261719 319.179688 1668.179688 314.320312 C 1546.128906 311.980469 1424.128906 306.039062 1302.308594 298.171875 Z M 762.765625 252.621094 C 764.054688 259.449219 765.375 266.28125 766.722656 273.089844 C 784.265625 362.449219 807.027344 451.621094 838.507812 537.128906 C 862.144531 601.378906 895.003906 674.851562 939.386719 732.460938 C 971.839844 715.488281 1004.179688 698.28125 1036.398438 680.910156 C 1092.328125 650.78125 1147.949219 620.109375 1203.308594 588.96875 C 1199.738281 580.371094 1196.328125 571.699219 1193.070312 562.988281 C 1161.699219 479.25 1139.5 379.769531 1128.910156 285.789062 C 1006.730469 276.261719 884.683594 265.089844 762.765625 252.621094 Z M 295.660156 199.171875 C 297.21875 429.019531 320.039062 785.148438 417.222656 970.199219 C 477.019531 949.050781 535.714844 924.511719 590.820312 900.628906 C 656.585938 872.140625 721.554688 841.859375 785.921875 810.339844 C 748.296875 755.519531 718.304688 694.230469 694.023438 634.46875 C 653.5625 534.871094 624.78125 429.941406 603.171875 324.738281 C 596.96875 294.53125 591.175781 264.160156 586.222656 233.679688 C 542.964844 228.828125 499.722656 223.851562 456.484375 218.738281 C 402.863281 212.390625 349.242188 205.898438 295.660156 199.171875 Z M 1971.011719 140.960938 C 1997.78125 139.519531 2024.539062 137.621094 2051.25 135.199219 C 2111.089844 129.761719 2173.109375 121.960938 2230.941406 105.289062 C 2276.070312 92.289062 2323.351562 118.398438 2336.351562 163.53125 C 2349.328125 208.621094 2323.191406 255.921875 2278.101562 268.921875 C 2208.050781 289.109375 2133.789062 298.460938 2061.269531 304.78125 C 2069.410156 377.109375 2079.28125 449.238281 2089.679688 521.238281 C 2120.878906 736.929688 2160.421875 951.96875 2214.339844 1163.210938 C 2244.589844 1281.75 2279.5 1399.488281 2323.089844 1513.871094 C 2345.199219 1571.898438 2369.859375 1630.328125 2398.480469 1686.449219 C 2400.390625 1689.621094 2402.109375 1692.949219 2403.578125 1696.378906 C 2422.058594 1731.839844 2442.128906 1766.289062 2464.21875 1799.070312 C 2490.441406 1837.988281 2480.078125 1891.101562 2441.128906 1917.28125 C 2427.070312 1926.738281 2410.601562 1931.738281 2393.660156 1931.738281 C 2365.269531 1931.738281 2338.808594 1917.738281 2322.960938 1894.179688 C 2305.878906 1868.820312 2289.640625 1842.410156 2274.179688 1815.140625 C 2162.511719 1811.160156 2046.578125 1784.351562 1940.199219 1754.328125 C 1821.378906 1720.769531 1704.839844 1679.140625 1590.230469 1633.300781 C 1555.71875 1619.488281 1521.5 1605.019531 1487.378906 1590.320312 C 1461.710938 1639.46875 1435 1688.03125 1407.011719 1735.839844 C 1387.511719 1769.148438 1366.410156 1803.941406 1343.800781 1838.628906 C 1363.019531 1848.398438 1382.25 1857.300781 1401.398438 1865.121094 C 1444.660156 1882.828125 1465.628906 1932.898438 1447.960938 1976.160156 C 1434.878906 2008.191406 1403.71875 2029.101562 1369.148438 2029.101562 C 1358.078125 2029.101562 1347.171875 2026.929688 1336.921875 2022.75 C 1305.089844 2009.75 1273.328125 1994.441406 1241.839844 1977.371094 C 1212.96875 2011.390625 1182.390625 2042.808594 1150.179688 2069.640625 C 1134.851562 2082.398438 1115.640625 2089.351562 1095.710938 2089.351562 C 1070.378906 2089.351562 1046.480469 2078.191406 1030.269531 2058.71875 C 1000.308594 2022.808594 1005.25 1968.71875 1041.160156 1938.789062 C 1060.03125 1923.058594 1078.398438 1905.128906 1096.21875 1885.671875 C 1012.421875 1826.230469 932.984375 1759.359375 861.980469 1696.179688 C 730.152344 1578.910156 606.078125 1452.921875 487.105469 1322.691406 C 440.8125 1272.019531 395.023438 1220.820312 350.621094 1168.46875 C 319.269531 1176.738281 287.871094 1183.691406 256.609375 1188.929688 C 249.644531 1190.089844 250.972656 1190.089844 242.691406 1190.089844 C 201.027344 1190.089844 165.441406 1159.78125 158.714844 1118.691406 C 151.121094 1072.289062 182.609375 1028.5 228.988281 1020.910156 C 237.539062 1019.511719 246.109375 1017.949219 254.695312 1016.25 C 209.695312 911.261719 183.632812 788.078125 166.9375 684.480469 C 146.195312 555.769531 135.066406 425.410156 129.480469 295.199219 C 127.785156 255.78125 126.425781 216.320312 125.875 176.851562 C 108.285156 174.410156 90.695312 171.949219 73.113281 169.441406 C 26.59375 162.789062 -5.78125 119.628906 0.867188 73.109375 C 7.515625 26.578125 50.636719 -5.738281 97.15625 0.851562 C 137.695312 6.609375 178.265625 12.101562 218.863281 17.410156 C 220.953125 17.609375 223.039062 17.871094 225.089844 18.21875 C 300.890625 28.109375 376.773438 37.351562 452.683594 46.359375 C 707.636719 76.621094 963.152344 102.71875 1219.238281 121.429688 C 1415.148438 135.75 1611.660156 146.398438 1808.160156 145.371094 C 1847.480469 145.160156 1886.820312 144.488281 1926.121094 143.011719 C 1931.121094 142.359375 1936.210938 142.148438 1941.328125 142.410156 C 1946.128906 142.210938 1950.941406 141.988281 1955.75 141.738281 C 1956.460938 141.640625 1957.179688 141.558594 1957.910156 141.480469 C 1958.640625 141.390625 1959.371094 141.320312 1960.101562 141.25 C 1963.761719 140.921875 1967.410156 140.828125 1971.011719 140.960938 "/>
</clipPath>
<linearGradient id="linear-pattern-0" gradientUnits="userSpaceOnUse" x1="-0.00231628" y1="0" x2="1.004733" y2="0" gradientTransform="matrix(2461.35, 0, 0, 2461.35, 5.70117, 1044.68)">
<stop offset="0" stop-color="rgb(0%, 16.470337%, 22.3526%)" stop-opacity="1"/>
<stop offset="0.0078125" stop-color="rgb(0%, 16.569519%, 22.453308%)" stop-opacity="1"/>
<stop offset="0.015625" stop-color="rgb(0%, 16.812134%, 22.697449%)" stop-opacity="1"/>
<stop offset="0.0234375" stop-color="rgb(0%, 17.095947%, 22.984314%)" stop-opacity="1"/>
<stop offset="0.03125" stop-color="rgb(0%, 17.379761%, 23.271179%)" stop-opacity="1"/>
<stop offset="0.0390625" stop-color="rgb(0%, 17.663574%, 23.55957%)" stop-opacity="1"/>
<stop offset="0.046875" stop-color="rgb(0%, 17.947388%, 23.846436%)" stop-opacity="1"/>
<stop offset="0.0546875" stop-color="rgb(0%, 18.231201%, 24.133301%)" stop-opacity="1"/>
<stop offset="0.0625" stop-color="rgb(0%, 18.515015%, 24.420166%)" stop-opacity="1"/>
<stop offset="0.0703125" stop-color="rgb(0%, 18.798828%, 24.707031%)" stop-opacity="1"/>
<stop offset="0.078125" stop-color="rgb(0%, 19.082642%, 24.993896%)" stop-opacity="1"/>
<stop offset="0.0859375" stop-color="rgb(0%, 19.366455%, 25.280762%)" stop-opacity="1"/>
<stop offset="0.09375" stop-color="rgb(0%, 19.650269%, 25.567627%)" stop-opacity="1"/>
<stop offset="0.101562" stop-color="rgb(0%, 19.934082%, 25.854492%)" stop-opacity="1"/>
<stop offset="0.109375" stop-color="rgb(0%, 20.217896%, 26.141357%)" stop-opacity="1"/>
<stop offset="0.117187" stop-color="rgb(0%, 20.501709%, 26.428223%)" stop-opacity="1"/>
<stop offset="0.125" stop-color="rgb(0%, 20.785522%, 26.715088%)" stop-opacity="1"/>
<stop offset="0.132812" stop-color="rgb(0%, 21.069336%, 27.001953%)" stop-opacity="1"/>
<stop offset="0.140625" stop-color="rgb(0%, 21.353149%, 27.288818%)" stop-opacity="1"/>
<stop offset="0.148438" stop-color="rgb(0%, 21.636963%, 27.575684%)" stop-opacity="1"/>
<stop offset="0.15625" stop-color="rgb(0%, 21.920776%, 27.862549%)" stop-opacity="1"/>
<stop offset="0.164062" stop-color="rgb(0%, 22.20459%, 28.149414%)" stop-opacity="1"/>
<stop offset="0.171875" stop-color="rgb(0%, 22.488403%, 28.436279%)" stop-opacity="1"/>
<stop offset="0.179688" stop-color="rgb(0%, 22.772217%, 28.723145%)" stop-opacity="1"/>
<stop offset="0.1875" stop-color="rgb(0%, 23.05603%, 29.01001%)" stop-opacity="1"/>
<stop offset="0.195312" stop-color="rgb(0%, 23.339844%, 29.296875%)" stop-opacity="1"/>
<stop offset="0.203125" stop-color="rgb(0%, 23.623657%, 29.58374%)" stop-opacity="1"/>
<stop offset="0.210937" stop-color="rgb(0%, 23.908997%, 29.872131%)" stop-opacity="1"/>
<stop offset="0.21875" stop-color="rgb(0%, 24.19281%, 30.158997%)" stop-opacity="1"/>
<stop offset="0.226562" stop-color="rgb(0%, 24.476624%, 30.445862%)" stop-opacity="1"/>
<stop offset="0.234375" stop-color="rgb(0%, 24.760437%, 30.732727%)" stop-opacity="1"/>
<stop offset="0.242187" stop-color="rgb(0%, 25.04425%, 31.019592%)" stop-opacity="1"/>
<stop offset="0.25" stop-color="rgb(0%, 25.328064%, 31.306458%)" stop-opacity="1"/>
<stop offset="0.257812" stop-color="rgb(0%, 25.611877%, 31.593323%)" stop-opacity="1"/>
<stop offset="0.265625" stop-color="rgb(0%, 25.895691%, 31.880188%)" stop-opacity="1"/>
<stop offset="0.273437" stop-color="rgb(0%, 26.179504%, 32.167053%)" stop-opacity="1"/>
<stop offset="0.28125" stop-color="rgb(0%, 26.463318%, 32.453918%)" stop-opacity="1"/>
<stop offset="0.289062" stop-color="rgb(0%, 26.747131%, 32.740784%)" stop-opacity="1"/>
<stop offset="0.296875" stop-color="rgb(0%, 27.030945%, 33.027649%)" stop-opacity="1"/>
<stop offset="0.304687" stop-color="rgb(0%, 27.314758%, 33.314514%)" stop-opacity="1"/>
<stop offset="0.3125" stop-color="rgb(0%, 27.598572%, 33.601379%)" stop-opacity="1"/>
<stop offset="0.320312" stop-color="rgb(0%, 27.882385%, 33.888245%)" stop-opacity="1"/>
<stop offset="0.328125" stop-color="rgb(0%, 28.166199%, 34.17511%)" stop-opacity="1"/>
<stop offset="0.335937" stop-color="rgb(0%, 28.450012%, 34.461975%)" stop-opacity="1"/>
<stop offset="0.34375" stop-color="rgb(0%, 28.733826%, 34.74884%)" stop-opacity="1"/>
<stop offset="0.351562" stop-color="rgb(0%, 29.017639%, 35.035706%)" stop-opacity="1"/>
<stop offset="0.359375" stop-color="rgb(0%, 29.301453%, 35.322571%)" stop-opacity="1"/>
<stop offset="0.367187" stop-color="rgb(0%, 29.585266%, 35.609436%)" stop-opacity="1"/>
<stop offset="0.375" stop-color="rgb(0%, 29.86908%, 35.896301%)" stop-opacity="1"/>
<stop offset="0.382812" stop-color="rgb(0%, 30.152893%, 36.184692%)" stop-opacity="1"/>
<stop offset="0.390625" stop-color="rgb(0%, 30.436707%, 36.471558%)" stop-opacity="1"/>
<stop offset="0.398437" stop-color="rgb(0%, 30.72052%, 36.758423%)" stop-opacity="1"/>
<stop offset="0.40625" stop-color="rgb(0%, 31.004333%, 37.045288%)" stop-opacity="1"/>
<stop offset="0.414062" stop-color="rgb(0%, 31.288147%, 37.332153%)" stop-opacity="1"/>
<stop offset="0.421875" stop-color="rgb(0%, 31.57196%, 37.619019%)" stop-opacity="1"/>
<stop offset="0.429687" stop-color="rgb(0%, 31.855774%, 37.905884%)" stop-opacity="1"/>
<stop offset="0.4375" stop-color="rgb(0%, 32.139587%, 38.192749%)" stop-opacity="1"/>
<stop offset="0.445312" stop-color="rgb(0%, 32.423401%, 38.479614%)" stop-opacity="1"/>
<stop offset="0.453125" stop-color="rgb(0%, 32.707214%, 38.766479%)" stop-opacity="1"/>
<stop offset="0.460937" stop-color="rgb(0%, 32.991028%, 39.053345%)" stop-opacity="1"/>
<stop offset="0.46875" stop-color="rgb(0%, 33.274841%, 39.34021%)" stop-opacity="1"/>
<stop offset="0.476562" stop-color="rgb(0%, 33.558655%, 39.627075%)" stop-opacity="1"/>
<stop offset="0.484375" stop-color="rgb(0%, 33.842468%, 39.91394%)" stop-opacity="1"/>
<stop offset="0.492187" stop-color="rgb(0%, 34.126282%, 40.200806%)" stop-opacity="1"/>
<stop offset="0.5" stop-color="rgb(0%, 34.410095%, 40.487671%)" stop-opacity="1"/>
<stop offset="0.507812" stop-color="rgb(0%, 34.693909%, 40.774536%)" stop-opacity="1"/>
<stop offset="0.515625" stop-color="rgb(0%, 34.977722%, 41.061401%)" stop-opacity="1"/>
<stop offset="0.523438" stop-color="rgb(0%, 35.261536%, 41.348267%)" stop-opacity="1"/>
<stop offset="0.53125" stop-color="rgb(0%, 35.545349%, 41.635132%)" stop-opacity="1"/>
<stop offset="0.539062" stop-color="rgb(0%, 35.830688%, 41.921997%)" stop-opacity="1"/>
<stop offset="0.546875" stop-color="rgb(0%, 36.114502%, 42.208862%)" stop-opacity="1"/>
<stop offset="0.554687" stop-color="rgb(0%, 36.398315%, 42.497253%)" stop-opacity="1"/>
<stop offset="0.5625" stop-color="rgb(0%, 36.682129%, 42.784119%)" stop-opacity="1"/>
<stop offset="0.570312" stop-color="rgb(0%, 36.965942%, 43.070984%)" stop-opacity="1"/>
<stop offset="0.578125" stop-color="rgb(0%, 37.249756%, 43.357849%)" stop-opacity="1"/>
<stop offset="0.585937" stop-color="rgb(0%, 37.533569%, 43.644714%)" stop-opacity="1"/>
<stop offset="0.59375" stop-color="rgb(0%, 37.817383%, 43.93158%)" stop-opacity="1"/>
<stop offset="0.601562" stop-color="rgb(0%, 38.101196%, 44.218445%)" stop-opacity="1"/>
<stop offset="0.609375" stop-color="rgb(0%, 38.38501%, 44.50531%)" stop-opacity="1"/>
<stop offset="0.617187" stop-color="rgb(0%, 38.668823%, 44.792175%)" stop-opacity="1"/>
<stop offset="0.625" stop-color="rgb(0%, 38.952637%, 45.079041%)" stop-opacity="1"/>
<stop offset="0.632812" stop-color="rgb(0%, 39.23645%, 45.365906%)" stop-opacity="1"/>
<stop offset="0.640625" stop-color="rgb(0%, 39.520264%, 45.652771%)" stop-opacity="1"/>
<stop offset="0.648437" stop-color="rgb(0%, 39.804077%, 45.939636%)" stop-opacity="1"/>
<stop offset="0.65625" stop-color="rgb(0%, 40.087891%, 46.226501%)" stop-opacity="1"/>
<stop offset="0.664062" stop-color="rgb(0%, 40.371704%, 46.513367%)" stop-opacity="1"/>
<stop offset="0.671875" stop-color="rgb(0%, 40.655518%, 46.800232%)" stop-opacity="1"/>
<stop offset="0.679688" stop-color="rgb(0%, 40.939331%, 47.087097%)" stop-opacity="1"/>
<stop offset="0.6875" stop-color="rgb(0%, 41.223145%, 47.373962%)" stop-opacity="1"/>
<stop offset="0.695312" stop-color="rgb(0%, 41.506958%, 47.660828%)" stop-opacity="1"/>
<stop offset="0.703125" stop-color="rgb(0%, 41.790771%, 47.947693%)" stop-opacity="1"/>
<stop offset="0.710938" stop-color="rgb(0%, 42.074585%, 48.234558%)" stop-opacity="1"/>
<stop offset="0.71875" stop-color="rgb(0%, 42.358398%, 48.521423%)" stop-opacity="1"/>
<stop offset="0.726562" stop-color="rgb(0%, 42.642212%, 48.809814%)" stop-opacity="1"/>
<stop offset="0.734375" stop-color="rgb(0%, 42.926025%, 49.09668%)" stop-opacity="1"/>
<stop offset="0.742187" stop-color="rgb(0%, 43.209839%, 49.383545%)" stop-opacity="1"/>
<stop offset="0.75" stop-color="rgb(0%, 43.493652%, 49.67041%)" stop-opacity="1"/>
<stop offset="0.757812" stop-color="rgb(0%, 43.777466%, 49.957275%)" stop-opacity="1"/>
<stop offset="0.765625" stop-color="rgb(0%, 44.061279%, 50.244141%)" stop-opacity="1"/>
<stop offset="0.773437" stop-color="rgb(0%, 44.345093%, 50.531006%)" stop-opacity="1"/>
<stop offset="0.78125" stop-color="rgb(0%, 44.628906%, 50.817871%)" stop-opacity="1"/>
<stop offset="0.789062" stop-color="rgb(0%, 44.91272%, 51.104736%)" stop-opacity="1"/>
<stop offset="0.796875" stop-color="rgb(0%, 45.196533%, 51.391602%)" stop-opacity="1"/>
<stop offset="0.804687" stop-color="rgb(0%, 45.480347%, 51.678467%)" stop-opacity="1"/>
<stop offset="0.8125" stop-color="rgb(0%, 45.76416%, 51.965332%)" stop-opacity="1"/>
<stop offset="0.820312" stop-color="rgb(0%, 46.047974%, 52.252197%)" stop-opacity="1"/>
<stop offset="0.828125" stop-color="rgb(0%, 46.331787%, 52.539062%)" stop-opacity="1"/>
<stop offset="0.835938" stop-color="rgb(0%, 46.615601%, 52.825928%)" stop-opacity="1"/>
<stop offset="0.84375" stop-color="rgb(0%, 46.899414%, 53.112793%)" stop-opacity="1"/>
<stop offset="0.851562" stop-color="rgb(0%, 47.183228%, 53.399658%)" stop-opacity="1"/>
<stop offset="0.859375" stop-color="rgb(0%, 47.467041%, 53.686523%)" stop-opacity="1"/>
<stop offset="0.867188" stop-color="rgb(0%, 47.750854%, 53.973389%)" stop-opacity="1"/>
<stop offset="0.875" stop-color="rgb(0%, 48.036194%, 54.260254%)" stop-opacity="1"/>
<stop offset="0.882812" stop-color="rgb(0%, 48.320007%, 54.547119%)" stop-opacity="1"/>
<stop offset="0.890625" stop-color="rgb(0%, 48.603821%, 54.83551%)" stop-opacity="1"/>
<stop offset="0.898438" stop-color="rgb(0%, 48.887634%, 55.122375%)" stop-opacity="1"/>
<stop offset="0.90625" stop-color="rgb(0%, 49.171448%, 55.409241%)" stop-opacity="1"/>
<stop offset="0.914062" stop-color="rgb(0%, 49.455261%, 55.696106%)" stop-opacity="1"/>
<stop offset="0.921875" stop-color="rgb(0%, 49.739075%, 55.982971%)" stop-opacity="1"/>
<stop offset="0.929687" stop-color="rgb(0%, 50.022888%, 56.269836%)" stop-opacity="1"/>
<stop offset="0.9375" stop-color="rgb(0%, 50.306702%, 56.556702%)" stop-opacity="1"/>
<stop offset="0.945312" stop-color="rgb(0%, 50.590515%, 56.843567%)" stop-opacity="1"/>
<stop offset="0.953125" stop-color="rgb(0%, 50.874329%, 57.130432%)" stop-opacity="1"/>
<stop offset="0.960937" stop-color="rgb(0%, 51.158142%, 57.417297%)" stop-opacity="1"/>
<stop offset="0.96875" stop-color="rgb(0%, 51.441956%, 57.704163%)" stop-opacity="1"/>
<stop offset="0.976562" stop-color="rgb(0%, 51.725769%, 57.991028%)" stop-opacity="1"/>
<stop offset="0.984375" stop-color="rgb(0%, 52.009583%, 58.277893%)" stop-opacity="1"/>
<stop offset="0.992187" stop-color="rgb(0%, 52.293396%, 58.564758%)" stop-opacity="1"/>
<stop offset="1" stop-color="rgb(0%, 52.49176%, 58.764648%)" stop-opacity="1"/>
</linearGradient>
</defs>
<g clip-path="url(#clip-0)">
<g clip-path="url(#clip-1)">
<path fill-rule="nonzero" fill="url(#linear-pattern-0)" d="M 0 0 L 0 2089.351562 L 2478.699219 2089.351562 L 2478.699219 0 Z M 0 0 "/>
</g>
</g>
</svg>
